<svg width="48" height="48" viewBox="0 0 48 48" xmlns="http://www.w3.org/2000/svg">
  <!-- Dragon Wyrmling Boss -->
  <defs>
    <linearGradient id="dragonScaleGradient" x1="0%" y1="0%" x2="100%" y2="100%">
      <stop offset="0%" stop-color="#8B0000"/>
      <stop offset="50%" stop-color="#CC0000"/>
      <stop offset="100%" stop-color="#FF4444"/>
    </linearGradient>
    <radialGradient id="dragonFireGlow" cx="50%" cy="50%">
      <stop offset="0%" stop-color="#FFFF00"/>
      <stop offset="50%" stop-color="#FF6600"/>
      <stop offset="100%" stop-color="#CC0000"/>
    </radialGradient>
  </defs>
  
  <!-- Wings -->
  <path d="M8 20 Q2 14 6 8 Q12 12 16 18 L24 20 L16 22 Q8 26 8 20" 
        fill="url(#dragonScaleGradient)"/>
  <path d="M40 20 Q46 14 42 8 Q36 12 32 18 L24 20 L32 22 Q40 26 40 20" 
        fill="url(#dragonScaleGradient)"/>
  
  <!-- Wing membranes -->
  <path d="M10 16 Q8 12 12 14 Q14 16 10 16" fill="#8B0000" opacity="0.7"/>
  <path d="M38 16 Q40 12 36 14 Q34 16 38 16" fill="#8B0000" opacity="0.7"/>
  
  <!-- Body -->
  <ellipse cx="24" cy="26" rx="10" ry="8" fill="url(#dragonScaleGradient)"/>
  
  <!-- Head -->
  <ellipse cx="24" cy="16" rx="6" ry="5" fill="url(#dragonScaleGradient)"/>
  
  <!-- Snout -->
  <ellipse cx="24" cy="20" rx="4" ry="3" fill="#8B0000"/>
  
  <!-- Horns -->
  <path d="M20 12 L18 6 L22 8 Z" fill="#2F2F2F"/>
  <path d="M28 12 L30 6 L26 8 Z" fill="#2F2F2F"/>
  
  <!-- Eyes (Dragon fire) -->
  <circle cx="21" cy="15" r="2" fill="url(#dragonFireGlow)"/>
  <circle cx="27" cy="15" r="2" fill="url(#dragonFireGlow)"/>
  <ellipse cx="21" cy="15" rx="1.2" ry="1.8" fill="#FFFF00"/>
  <ellipse cx="27" cy="15" rx="1.2" ry="1.8" fill="#FFFF00"/>
  
  <!-- Nostrils -->
  <ellipse cx="22" cy="20" rx="0.8" ry="0.5" fill="#000000"/>
  <ellipse cx="26" cy="20" rx="0.8" ry="0.5" fill="#000000"/>
  
  <!-- Legs -->
  <rect x="16" y="32" width="3" height="8" fill="#8B0000"/>
  <rect x="22" y="32" width="3" height="8" fill="#8B0000"/>
  <rect x="26" y="32" width="3" height="8" fill="#8B0000"/>
  <rect x="32" y="32" width="3" height="8" fill="#8B0000"/>
  
  <!-- Dragon claws -->
  <path d="M17 40 L15 44 M17 40 L17 44 M17 40 L19 44" 
        stroke="#FFD700" stroke-width="1.5"/>
  <path d="M23 40 L21 44 M23 40 L23 44 M23 40 L25 44" 
        stroke="#FFD700" stroke-width="1.5"/>
  <path d="M27 40 L25 44 M27 40 L27 44 M27 40 L29 44" 
        stroke="#FFD700" stroke-width="1.5"/>
  <path d="M33 40 L31 44 M33 40 L33 44 M33 40 L35 44" 
        stroke="#FFD700" stroke-width="1.5"/>
  
  <!-- Tail -->
  <path d="M34 28 Q40 26 44 22 Q42 24 38 26 Q36 28 34 28" 
        stroke="#8B0000" stroke-width="4" fill="none"/>
  
  <!-- Scale details -->
  <circle cx="20" cy="24" r="1" fill="#CC0000" opacity="0.8"/>
  <circle cx="28" cy="26" r="1" fill="#CC0000" opacity="0.8"/>
  <circle cx="24" cy="30" r="1.2" fill="#CC0000" opacity="0.8"/>
  
  <!-- Fire breath -->
  <path d="M24 22 Q28 24 32 22 Q30 26 24 24" fill="#FF6600" opacity="0.7"/>
  <circle cx="30" cy="23" r="1" fill="#FFFF00" opacity="0.8"/>
  <circle cx="32" cy="21" r="0.8" fill="#FF6600" opacity="0.9"/>
  
  <!-- Dragon aura -->
  <circle cx="24" cy="24" r="20" fill="none" stroke="#CC0000" stroke-width="0.5" opacity="0.5"/>
  <circle cx="24" cy="24" r="22" fill="none" stroke="#FF4444" stroke-width="0.3" opacity="0.3"/>
</svg>
