<svg width="48" height="48" viewBox="0 0 48 48" xmlns="http://www.w3.org/2000/svg">
  <!-- Stone Giant Boss -->
  <defs>
    <linearGradient id="stoneBodyGradient" x1="0%" y1="0%" x2="100%" y2="100%">
      <stop offset="0%" stop-color="#696969"/>
      <stop offset="50%" stop-color="#2F4F4F"/>
      <stop offset="100%" stop-color="#1C1C1C"/>
    </linearGradient>
    <radialGradient id="stoneEyeGlow" cx="50%" cy="50%">
      <stop offset="0%" stop-color="#FFD700"/>
      <stop offset="100%" stop-color="#B8860B"/>
    </radialGradient>
  </defs>
  
  <!-- Main body -->
  <rect x="16" y="20" width="16" height="24" rx="2" fill="url(#stoneBodyGradient)"/>
  
  <!-- Head -->
  <rect x="18" y="8" width="12" height="14" rx="2" fill="url(#stoneBodyGradient)"/>
  
  <!-- Arms -->
  <rect x="8" y="24" width="6" height="16" rx="2" fill="url(#stoneBodyGradient)"/>
  <rect x="34" y="24" width="6" height="16" rx="2" fill="url(#stoneBodyGradient)"/>
  
  <!-- Legs -->
  <rect x="18" y="40" width="5" height="6" fill="url(#stoneBodyGradient)"/>
  <rect x="25" y="40" width="5" height="6" fill="url(#stoneBodyGradient)"/>
  
  <!-- Stone texture -->
  <rect x="20" y="12" width="2" height="2" fill="#1C1C1C"/>
  <rect x="26" y="14" width="2" height="2" fill="#1C1C1C"/>
  <rect x="18" y="28" width="3" height="2" fill="#1C1C1C"/>
  <rect x="27" y="30" width="3" height="2" fill="#1C1C1C"/>
  <rect x="20" y="36" width="2" height="3" fill="#1C1C1C"/>
  
  <!-- Eyes (Ancient power) -->
  <circle cx="21" cy="15" r="2" fill="url(#stoneEyeGlow)"/>
  <circle cx="27" cy="15" r="2" fill="url(#stoneEyeGlow)"/>
  <circle cx="21" cy="15" r="1.2" fill="#FFD700"/>
  <circle cx="27" cy="15" r="1.2" fill="#FFD700"/>
  
  <!-- Mouth -->
  <rect x="22" y="18" width="4" height="2" fill="#000000"/>
  
  <!-- Crystal formations -->
  <polygon points="12,20 10,18 12,16 14,18" fill="#9370DB"/>
  <polygon points="36,22 38,20 36,18 34,20" fill="#9370DB"/>
  <polygon points="24,6 22,4 24,2 26,4" fill="#32CD32"/>
  
  <!-- Hands/fists -->
  <circle cx="11" cy="36" r="3" fill="url(#stoneBodyGradient)"/>
  <circle cx="37" cy="36" r="3" fill="url(#stoneBodyGradient)"/>
  
  <!-- Mountain power aura -->
  <circle cx="24" cy="24" r="20" fill="none" stroke="#B8860B" stroke-width="0.5" opacity="0.4"/>
  <circle cx="24" cy="24" r="22" fill="none" stroke="#FFD700" stroke-width="0.3" opacity="0.2"/>
  
  <!-- Rock debris -->
  <polygon points="6,40 4,42 6,44 8,42" fill="#696969" opacity="0.6"/>
  <polygon points="42,38 40,40 42,42 44,40" fill="#696969" opacity="0.6"/>
  <polygon points="2,28 0,30 2,32 4,30" fill="#2F4F4F" opacity="0.7"/>
</svg>
