<svg width="32" height="32" viewBox="0 0 32 32" xmlns="http://www.w3.org/2000/svg">
  <!-- Dragonborn Male Character -->
  <defs>
    <linearGradient id="dragonbornScaleGradient" x1="0%" y1="0%" x2="100%" y2="100%">
      <stop offset="0%" stop-color="#8B0000"/>
      <stop offset="50%" stop-color="#CC0000"/>
      <stop offset="100%" stop-color="#FF4444"/>
    </linearGradient>
    <radialGradient id="dragonbornEyeGlow" cx="50%" cy="50%">
      <stop offset="0%" stop-color="#FFFF00"/>
      <stop offset="100%" stop-color="#FF6600"/>
    </radialGradient>
  </defs>
  
  <!-- Body -->
  <ellipse cx="16" cy="22" rx="7" ry="9" fill="url(#dragonbornScaleGradient)"/>
  
  <!-- Head (dragon-like) -->
  <ellipse cx="16" cy="12" rx="5" ry="6" fill="url(#dragonbornScaleGradient)"/>
  
  <!-- Snout -->
  <ellipse cx="16" cy="16" rx="3" ry="2" fill="#8B0000"/>
  
  <!-- Horns -->
  <path d="M13 8 L11 4 L15 6 Z" fill="#2F2F2F"/>
  <path d="M19 8 L21 4 L17 6 Z" fill="#2F2F2F"/>
  
  <!-- Eyes (Dragon fire) -->
  <ellipse cx="14" cy="11" rx="1.5" ry="2" fill="url(#dragonbornEyeGlow)"/>
  <ellipse cx="18" cy="11" rx="1.5" ry="2" fill="url(#dragonbornEyeGlow)"/>
  <ellipse cx="14" cy="11" rx="0.8" ry="1.2" fill="#FFFF00"/>
  <ellipse cx="18" cy="11" rx="0.8" ry="1.2" fill="#FFFF00"/>
  
  <!-- Nostrils -->
  <ellipse cx="15" cy="16" rx="0.5" ry="0.8" fill="#000000"/>
  <ellipse cx="17" cy="16" rx="0.5" ry="0.8" fill="#000000"/>
  
  <!-- Scale details -->
  <circle cx="12" cy="14" r="0.8" fill="#FF4444" opacity="0.7"/>
  <circle cx="20" cy="14" r="0.8" fill="#FF4444" opacity="0.7"/>
  <circle cx="14" cy="20" r="1" fill="#FF4444" opacity="0.7"/>
  <circle cx="18" cy="20" r="1" fill="#FF4444" opacity="0.7"/>
  <circle cx="16" cy="26" r="1.2" fill="#FF4444" opacity="0.7"/>
  
  <!-- Arms -->
  <ellipse cx="10" cy="20" rx="2.5" ry="7" fill="url(#dragonbornScaleGradient)"/>
  <ellipse cx="22" cy="20" rx="2.5" ry="7" fill="url(#dragonbornScaleGradient)"/>
  
  <!-- Clawed hands -->
  <circle cx="8" cy="25" r="2" fill="#8B0000"/>
  <circle cx="24" cy="25" r="2" fill="#8B0000"/>
  <path d="M7 25 L5 27 M7 25 L6 28 M7 25 L8 28" 
        stroke="#2F2F2F" stroke-width="1"/>
  <path d="M25 25 L27 27 M25 25 L26 28 M25 25 L24 28" 
        stroke="#2F2F2F" stroke-width="1"/>
  
  <!-- Legs -->
  <ellipse cx="13" cy="28" rx="2.5" ry="4" fill="url(#dragonbornScaleGradient)"/>
  <ellipse cx="19" cy="28" rx="2.5" ry="4" fill="url(#dragonbornScaleGradient)"/>
  
  <!-- Tail -->
  <path d="M23 28 Q28 30 30 26 Q28 28 25 28" 
        stroke="url(#dragonbornScaleGradient)" stroke-width="3" fill="none"/>
  
  <!-- Dragon heritage aura -->
  <circle cx="16" cy="16" r="13" fill="none" stroke="#FF6600" stroke-width="0.3" opacity="0.4"/>
  <circle cx="16" cy="16" r="15" fill="none" stroke="#FFFF00" stroke-width="0.2" opacity="0.2"/>
</svg>
