<svg width="32" height="32" viewBox="0 0 32 32" xmlns="http://www.w3.org/2000/svg">
  <!-- Dwarf Male Character -->
  <defs>
    <radialGradient id="dwarfSkinGradient" cx="50%" cy="30%">
      <stop offset="0%" stop-color="#D4A574"/>
      <stop offset="100%" stop-color="#B8956A"/>
    </radialGradient>
    <linearGradient id="dwarfArmorGradient" x1="0%" y1="0%" x2="100%" y2="100%">
      <stop offset="0%" stop-color="#B87333"/>
      <stop offset="100%" stop-color="#8B4513"/>
    </linearGradient>
  </defs>
  
  <!-- Body (broader, stockier) -->
  <rect x="10" y="18" width="12" height="10" fill="url(#dwarfArmorGradient)" rx="2"/>
  
  <!-- Head (larger) -->
  <circle cx="16" cy="12" r="7" fill="url(#dwarfSkinGradient)"/>
  
  <!-- Beard -->
  <path d="M10 16 Q16 22 22 16 Q20 20 16 20 Q12 20 10 16" fill="#8B4513"/>
  <path d="M12 18 Q16 21 20 18" fill="#654321"/>
  
  <!-- Hair -->
  <path d="M9 10 Q16 6 23 10 Q20 8 16 8 Q12 8 9 10" fill="#8B4513"/>
  
  <!-- Eyes -->
  <circle cx="13" cy="11" r="1" fill="#000"/>
  <circle cx="19" cy="11" r="1" fill="#000"/>
  <circle cx="13.5" cy="10.5" r="0.3" fill="#FFF"/>
  <circle cx="19.5" cy="10.5" r="0.3" fill="#FFF"/>
  
  <!-- Nose (prominent) -->
  <circle cx="16" cy="13" r="1" fill="#C8956A"/>
  
  <!-- Arms (muscular) -->
  <rect x="6" y="20" width="5" height="6" fill="url(#dwarfSkinGradient)" rx="2"/>
  <rect x="21" y="20" width="5" height="6" fill="url(#dwarfSkinGradient)" rx="2"/>
  
  <!-- Legs (short, sturdy) -->
  <rect x="12" y="28" width="3" height="4" fill="#654321" rx="1"/>
  <rect x="17" y="28" width="3" height="4" fill="#654321" rx="1"/>
  
  <!-- Axe -->
  <rect x="2" y="18" width="2" height="8" fill="#8B4513"/>
  <path d="M1 18 L5 18 L6 22 L0 22 Z" fill="#C0C0C0"/>
</svg>
