<svg width="32" height="32" viewBox="0 0 32 32" xmlns="http://www.w3.org/2000/svg">
  <!-- Elf Male Character -->
  <defs>
    <radialGradient id="elfSkinGradient" cx="50%" cy="30%">
      <stop offset="0%" stop-color="#E8D5B7"/>
      <stop offset="100%" stop-color="#C8B99C"/>
    </radialGradient>
    <linearGradient id="elfArmorGradient" x1="0%" y1="0%" x2="100%" y2="100%">
      <stop offset="0%" stop-color="#228B22"/>
      <stop offset="100%" stop-color="#006400"/>
    </linearGradient>
  </defs>
  
  <!-- Body (green armor) -->
  <rect x="12" y="16" width="8" height="12" fill="url(#elfArmorGradient)" rx="2"/>
  
  <!-- Head -->
  <circle cx="16" cy="10" r="6" fill="url(#elfSkinGradient)"/>
  
  <!-- Pointed ears -->
  <path d="M8 10 L10 8 L11 12 Z" fill="url(#elfSkinGradient)"/>
  <path d="M24 10 L22 8 L21 12 Z" fill="url(#elfSkinGradient)"/>
  
  <!-- Long hair -->
  <path d="M10 6 Q16 2 22 6 Q22 14 20 16 Q16 14 12 16 Q10 14 10 6" fill="#FFD700"/>
  
  <!-- Eyes (larger, more mystical) -->
  <ellipse cx="13" cy="9" rx="1.5" ry="1" fill="#00FF00"/>
  <ellipse cx="19" cy="9" rx="1.5" ry="1" fill="#00FF00"/>
  <circle cx="13" cy="9" r="0.5" fill="#000"/>
  <circle cx="19" cy="9" r="0.5" fill="#000"/>
  
  <!-- Mouth -->
  <path d="M14 12 Q16 13 18 12" stroke="#000" stroke-width="0.5" fill="none"/>
  
  <!-- Arms -->
  <rect x="8" y="18" width="4" height="8" fill="url(#elfSkinGradient)" rx="2"/>
  <rect x="20" y="18" width="4" height="8" fill="url(#elfSkinGradient)" rx="2"/>
  
  <!-- Legs -->
  <rect x="13" y="28" width="2.5" height="4" fill="#654321" rx="1"/>
  <rect x="16.5" y="28" width="2.5" height="4" fill="#654321" rx="1"/>
  
  <!-- Bow -->
  <path d="M26 12 Q28 16 26 20" stroke="#8B4513" stroke-width="2" fill="none"/>
  <line x1="26" y1="16" x2="24" y2="16" stroke="#654321" stroke-width="1"/>
</svg>
