<svg width="32" height="32" viewBox="0 0 32 32" xmlns="http://www.w3.org/2000/svg">
  <!-- Githzerai Character -->
  <defs>
    <radialGradient id="githzeraiSkin" cx="50%" cy="50%">
      <stop offset="0%" stop-color="#F5DEB3"/>
      <stop offset="70%" stop-color="#DEB887"/>
      <stop offset="100%" stop-color="#CD853F"/>
    </radialGradient>
    <radialGradient id="githzeraiCloth" cx="50%" cy="50%">
      <stop offset="0%" stop-color="#4B0082"/>
      <stop offset="100%" stop-color="#2E0854"/>
    </radialGradient>
    <radialGradient id="githzeraiHair" cx="50%" cy="50%">
      <stop offset="0%" stop-color="#8B4513"/>
      <stop offset="100%" stop-color="#654321"/>
    </radialGradient>
  </defs>
  
  <!-- Body -->
  <rect x="12" y="18" width="8" height="10" fill="url(#githzeraiCloth)" rx="2"/>
  
  <!-- Head -->
  <circle cx="16" cy="12" r="6" fill="url(#githzeraiSkin)"/>
  
  <!-- Eyes (psychic glow) -->
  <circle cx="14" cy="10" r="1.5" fill="#00FFFF"/>
  <circle cx="18" cy="10" r="1.5" fill="#00FFFF"/>
  <circle cx="14" cy="10" r="0.5" fill="#FFFFFF"/>
  <circle cx="18" cy="10" r="0.5" fill="#FFFFFF"/>
  
  <!-- Nose -->
  <ellipse cx="16" cy="13" rx="1" ry="0.5" fill="#CD853F"/>
  
  <!-- Mouth -->
  <path d="M14 15 Q16 17 18 15" stroke="#8B4513" stroke-width="1" fill="none"/>
  
  <!-- Hair (long and flowing) -->
  <path d="M10 6 Q16 4 22 6 Q20 8 18 10 Q16 8 14 10 Q12 8 10 6" fill="url(#githzeraiHair)"/>
  <path d="M10 6 Q12 8 14 10 Q16 8 18 10 Q20 8 22 6" fill="url(#githzeraiHair)" opacity="0.7"/>
  
  <!-- Arms -->
  <rect x="8" y="20" width="3" height="6" fill="url(#githzeraiSkin)" rx="1"/>
  <rect x="21" y="20" width="3" height="6" fill="url(#githzeraiSkin)" rx="1"/>
  
  <!-- Legs -->
  <rect x="13" y="28" width="2" height="4" fill="url(#githzeraiCloth)"/>
  <rect x="17" y="28" width="2" height="4" fill="url(#githzeraiCloth)"/>
  
  <!-- Psychic energy aura -->
  <circle cx="16" cy="16" r="12" fill="none" stroke="#00FFFF" stroke-width="0.5" opacity="0.3"/>
  <circle cx="16" cy="16" r="10" fill="none" stroke="#00FFFF" stroke-width="0.3" opacity="0.2"/>
</svg>
