<svg width="32" height="32" viewBox="0 0 32 32" xmlns="http://www.w3.org/2000/svg">
  <!-- Goblin Character -->
  <defs>
    <radialGradient id="goblinSkin" cx="50%" cy="50%">
      <stop offset="0%" stop-color="#90EE90"/>
      <stop offset="70%" stop-color="#32CD32"/>
      <stop offset="100%" stop-color="#228B22"/>
    </radialGradient>
    <radialGradient id="goblinCloth" cx="50%" cy="50%">
      <stop offset="0%" stop-color="#8B4513"/>
      <stop offset="100%" stop-color="#654321"/>
    </radialGradient>
  </defs>
  
  <!-- Body -->
  <rect x="12" y="18" width="8" height="10" fill="url(#goblinCloth)" rx="2"/>
  
  <!-- Head -->
  <circle cx="16" cy="12" r="6" fill="url(#goblinSkin)"/>
  
  <!-- Eyes -->
  <circle cx="14" cy="10" r="1" fill="#FF0000"/>
  <circle cx="18" cy="10" r="1" fill="#FF0000"/>
  
  <!-- Nose -->
  <ellipse cx="16" cy="13" rx="1" ry="0.5" fill="#228B22"/>
  
  <!-- Mouth -->
  <path d="M14 15 Q16 17 18 15" stroke="#228B22" stroke-width="1" fill="none"/>
  
  <!-- Ears -->
  <ellipse cx="11" cy="9" rx="1.5" ry="2" fill="url(#goblinSkin)"/>
  <ellipse cx="21" cy="9" rx="1.5" ry="2" fill="url(#goblinSkin)"/>
  
  <!-- Arms -->
  <rect x="8" y="20" width="3" height="6" fill="url(#goblinSkin)" rx="1"/>
  <rect x="21" y="20" width="3" height="6" fill="url(#goblinSkin)" rx="1"/>
  
  <!-- Legs -->
  <rect x="13" y="28" width="2" height="4" fill="url(#goblinCloth)"/>
  <rect x="17" y="28" width="2" height="4" fill="url(#goblinCloth)"/>
  
  <!-- Weapon (crude club) -->
  <rect x="22" y="18" width="2" height="8" fill="#8B4513"/>
  <circle cx="23" cy="16" r="2" fill="#654321"/>
</svg>