<svg width="32" height="32" viewBox="0 0 32 32" xmlns="http://www.w3.org/2000/svg">
  <!-- Red Mage Character (inspired by project visuals) -->
  <defs>
    <radialGradient id="redMageGlow" cx="50%" cy="50%">
      <stop offset="0%" stop-color="#00FF00"/>
      <stop offset="100%" stop-color="#00AA00"/>
    </radialGradient>
    <linearGradient id="redRobeGradient" x1="0%" y1="0%" x2="100%" y2="100%">
      <stop offset="0%" stop-color="#FF4444"/>
      <stop offset="50%" stop-color="#CC0000"/>
      <stop offset="100%" stop-color="#AA0000"/>
    </linearGradient>
  </defs>
  
  <!-- Robe/Cloak -->
  <path d="M16 12 L8 16 L6 28 Q6 30 8 30 L24 30 Q26 30 26 28 L24 16 Z" 
        fill="url(#redRobeGradient)"/>
  
  <!-- Hood -->
  <path d="M16 4 Q10 6 8 12 Q12 10 16 10 Q20 10 24 12 Q22 6 16 4" 
        fill="#AA0000"/>
  
  <!-- Face (hidden in shadow) -->
  <ellipse cx="16" cy="12" rx="4" ry="3" fill="#000000"/>
  
  <!-- Glowing Eyes -->
  <circle cx="14" cy="11" r="1.5" fill="url(#redMageGlow)"/>
  <circle cx="18" cy="11" r="1.5" fill="url(#redMageGlow)"/>
  <circle cx="14" cy="11" r="0.8" fill="#00FF00"/>
  <circle cx="18" cy="11" r="0.8" fill="#00FF00"/>
  
  <!-- Arms/Sleeves -->
  <ellipse cx="10" cy="18" rx="2" ry="6" fill="#CC0000"/>
  <ellipse cx="22" cy="18" rx="2" ry="6" fill="#CC0000"/>
  
  <!-- Hands -->
  <circle cx="8" cy="22" r="1.5" fill="#2A2A2A"/>
  <circle cx="24" cy="22" r="1.5" fill="#2A2A2A"/>
  
  <!-- Belt -->
  <rect x="12" y="20" width="8" height="2" fill="#8B4513"/>
  <rect x="15" y="19" width="2" height="4" fill="#FFD700"/>
  
  <!-- Robe details -->
  <path d="M12 16 Q16 14 20 16 Q18 18 16 18 Q14 18 12 16" 
        fill="#8B0000" opacity="0.7"/>
  
  <!-- Magic aura -->
  <circle cx="16" cy="16" r="12" fill="none" stroke="#00FF00" stroke-width="0.5" opacity="0.3"/>
  <circle cx="16" cy="16" r="14" fill="none" stroke="#00AA00" stroke-width="0.3" opacity="0.2"/>
  
  <!-- Staff (optional) -->
  <rect x="6" y="14" width="1" height="12" fill="#8B4513"/>
  <circle cx="6.5" cy="12" r="2" fill="#9370DB"/>
  <circle cx="6.5" cy="12" r="1" fill="#00FF00" opacity="0.8"/>
</svg>
