<svg width="32" height="32" viewBox="0 0 32 32" xmlns="http://www.w3.org/2000/svg">
  <!-- Orc Male Character -->
  <defs>
    <radialGradient id="orcSkinGradient" cx="50%" cy="30%">
      <stop offset="0%" stop-color="#7D8471"/>
      <stop offset="100%" stop-color="#5D6B4A"/>
    </radialGradient>
    <linearGradient id="orcArmorGradient" x1="0%" y1="0%" x2="100%" y2="100%">
      <stop offset="0%" stop-color="#8B0000"/>
      <stop offset="100%" stop-color="#4B0000"/>
    </linearGradient>
  </defs>
  
  <!-- Body (brutal armor) -->
  <rect x="11" y="16" width="10" height="12" fill="url(#orcArmorGradient)" rx="2"/>
  
  <!-- Head (larger, more brutish) -->
  <circle cx="16" cy="11" r="7.5" fill="url(#orcSkinGradient)"/>
  
  <!-- Tusks -->
  <path d="M13 15 L12 17 L14 16 Z" fill="#FFFACD"/>
  <path d="M19 15 L20 17 L18 16 Z" fill="#FFFACD"/>
  
  <!-- Hair (wild) -->
  <path d="M8 8 Q16 4 24 8 Q22 6 20 7 Q18 5 16 6 Q14 5 12 7 Q10 6 8 8" fill="#2F4F4F"/>
  
  <!-- Eyes (red, menacing) -->
  <circle cx="13" cy="10" r="1.2" fill="#FF0000"/>
  <circle cx="19" cy="10" r="1.2" fill="#FF0000"/>
  <circle cx="13" cy="10" r="0.6" fill="#000"/>
  <circle cx="19" cy="10" r="0.6" fill="#000"/>
  
  <!-- Scar -->
  <path d="M18 8 L20 12" stroke="#8B0000" stroke-width="1"/>
  
  <!-- Arms (muscular) -->
  <rect x="7" y="18" width="5" height="8" fill="url(#orcSkinGradient)" rx="2"/>
  <rect x="20" y="18" width="5" height="8" fill="url(#orcSkinGradient)" rx="2"/>
  
  <!-- Legs -->
  <rect x="12" y="28" width="3" height="4" fill="#2F4F4F" rx="1"/>
  <rect x="17" y="28" width="3" height="4" fill="#2F4F4F" rx="1"/>
  
  <!-- War hammer -->
  <rect x="26" y="16" width="2" height="10" fill="#654321"/>
  <rect x="24" y="16" width="6" height="4" fill="#696969"/>
  <circle cx="27" cy="14" r="2" fill="#696969"/>
</svg>
