<svg width="32" height="32" viewBox="0 0 32 32" xmlns="http://www.w3.org/2000/svg">
  <!-- Crystal Golem Pet -->
  <defs>
    <linearGradient id="crystalBodyGradient" x1="0%" y1="0%" x2="100%" y2="100%">
      <stop offset="0%" stop-color="#87CEEB"/>
      <stop offset="50%" stop-color="#4682B4"/>
      <stop offset="100%" stop-color="#2F4F4F"/>
    </linearGradient>
    <radialGradient id="crystalCoreGlow" cx="50%" cy="50%">
      <stop offset="0%" stop-color="#00FFFF"/>
      <stop offset="100%" stop-color="#0088AA"/>
    </radialGradient>
  </defs>
  
  <!-- Main body (crystalline) -->
  <polygon points="16,8 12,12 8,18 12,26 20,26 24,18 20,12" 
           fill="url(#crystalBodyGradient)"/>
  
  <!-- Crystal facets -->
  <polygon points="16,8 14,10 16,14 18,10" fill="#B0E0E6" opacity="0.7"/>
  <polygon points="12,12 10,16 14,18 16,14" fill="#B0E0E6" opacity="0.7"/>
  <polygon points="20,12 22,16 18,18 16,14" fill="#B0E0E6" opacity="0.7"/>
  
  <!-- Arms -->
  <polygon points="8,16 4,14 6,20 10,18" fill="url(#crystalBodyGradient)"/>
  <polygon points="24,16 28,14 26,20 22,18" fill="url(#crystalBodyGradient)"/>
  
  <!-- Legs -->
  <polygon points="12,24 10,28 14,30 16,26" fill="url(#crystalBodyGradient)"/>
  <polygon points="20,24 22,28 18,30 16,26" fill="url(#crystalBodyGradient)"/>
  
  <!-- Eyes (Crystal glow) -->
  <circle cx="14" cy="14" r="1.5" fill="url(#crystalCoreGlow)"/>
  <circle cx="18" cy="14" r="1.5" fill="url(#crystalCoreGlow)"/>
  <circle cx="14" cy="14" r="0.8" fill="#00FFFF"/>
  <circle cx="18" cy="14" r="0.8" fill="#00FFFF"/>
  
  <!-- Core crystal -->
  <polygon points="16,18 14,20 16,22 18,20" fill="url(#crystalCoreGlow)"/>
  <polygon points="16,18 15,19 16,20 17,19" fill="#00FFFF"/>
  
  <!-- Crystal formations -->
  <polygon points="6,18 4,16 6,14 8,16" fill="#00FFFF" opacity="0.6"/>
  <polygon points="26,18 28,16 26,14 24,16" fill="#00FFFF" opacity="0.6"/>
  
  <!-- Protective aura -->
  <circle cx="16" cy="18" r="14" fill="none" stroke="#00FFFF" stroke-width="0.4" opacity="0.3"/>
</svg>
