<svg width="32" height="32" viewBox="0 0 32 32" xmlns="http://www.w3.org/2000/svg">
  <!-- Shadow Cat Pet -->
  <defs>
    <radialGradient id="shadowCatGradient" cx="50%" cy="50%">
      <stop offset="0%" stop-color="#2A2A2A"/>
      <stop offset="70%" stop-color="#1A1A1A"/>
      <stop offset="100%" stop-color="#000000"/>
    </radialGradient>
    <radialGradient id="shadowEyeGlow" cx="50%" cy="50%">
      <stop offset="0%" stop-color="#9370DB"/>
      <stop offset="100%" stop-color="#4B0082"/>
    </radialGradient>
  </defs>
  
  <!-- Body -->
  <ellipse cx="16" cy="20" rx="8" ry="4" fill="url(#shadowCatGradient)"/>
  
  <!-- Head -->
  <circle cx="16" cy="12" r="5" fill="url(#shadowCatGradient)"/>
  
  <!-- Ears -->
  <path d="M12 8 L10 4 L14 6 Z" fill="#1A1A1A"/>
  <path d="M20 8 L22 4 L18 6 Z" fill="#1A1A1A"/>
  <path d="M11.5 7 L11 5 L13 6 Z" fill="#CC0000"/>
  <path d="M20.5 7 L21 5 L19 6 Z" fill="#CC0000"/>
  
  <!-- Eyes (Purple glow) -->
  <ellipse cx="14" cy="11" rx="1.5" ry="2" fill="url(#shadowEyeGlow)"/>
  <ellipse cx="18" cy="11" rx="1.5" ry="2" fill="url(#shadowEyeGlow)"/>
  <ellipse cx="14" cy="11" rx="0.8" ry="1.2" fill="#9370DB"/>
  <ellipse cx="18" cy="11" rx="0.8" ry="1.2" fill="#9370DB"/>
  
  <!-- Nose -->
  <path d="M16 13 L15 14 L17 14 Z" fill="#FF69B4"/>
  
  <!-- Whiskers -->
  <line x1="10" y1="12" x2="6" y2="11" stroke="#CCCCCC" stroke-width="0.5"/>
  <line x1="10" y1="14" x2="6" y2="14" stroke="#CCCCCC" stroke-width="0.5"/>
  <line x1="22" y1="12" x2="26" y2="11" stroke="#CCCCCC" stroke-width="0.5"/>
  <line x1="22" y1="14" x2="26" y2="14" stroke="#CCCCCC" stroke-width="0.5"/>
  
  <!-- Legs -->
  <rect x="10" y="22" width="2" height="4" fill="#1A1A1A"/>
  <rect x="14" y="22" width="2" height="4" fill="#1A1A1A"/>
  <rect x="18" y="22" width="2" height="4" fill="#1A1A1A"/>
  <rect x="22" y="22" width="2" height="4" fill="#1A1A1A"/>
  
  <!-- Tail -->
  <path d="M24 18 Q28 16 30 12 Q28 14 26 16" 
        stroke="#1A1A1A" stroke-width="3" fill="none"/>
  
  <!-- Shadow aura -->
  <circle cx="16" cy="16" r="13" fill="none" stroke="#9370DB" stroke-width="0.3" opacity="0.4"/>
  <circle cx="16" cy="16" r="15" fill="none" stroke="#4B0082" stroke-width="0.2" opacity="0.2"/>
</svg>
