<svg width="32" height="32" viewBox="0 0 32 32" xmlns="http://www.w3.org/2000/svg">
  <!-- Flame Sprite Pet -->
  <defs>
    <radialGradient id="flameCore" cx="50%" cy="50%">
      <stop offset="0%" stop-color="#FFFF00"/>
      <stop offset="30%" stop-color="#FF6600"/>
      <stop offset="70%" stop-color="#FF0000"/>
      <stop offset="100%" stop-color="#CC0000"/>
    </radialGradient>
    <radialGradient id="flameOuter" cx="50%" cy="50%">
      <stop offset="0%" stop-color="#FF6600"/>
      <stop offset="50%" stop-color="#FF0000"/>
      <stop offset="100%" stop-color="#8B0000"/>
    </radialGradient>
  </defs>
  
  <!-- Outer flame -->
  <path d="M16 4 Q12 6 10 12 Q8 18 12 22 Q16 26 20 22 Q24 18 22 12 Q20 6 16 4" 
        fill="url(#flameOuter)" opacity="0.8"/>
  
  <!-- Inner flame -->
  <path d="M16 8 Q14 10 13 14 Q12 18 15 20 Q16 22 17 20 Q20 18 19 14 Q18 10 16 8" 
        fill="url(#flameCore)"/>
  
  <!-- Core (sprite body) -->
  <circle cx="16" cy="16" r="4" fill="#FFFF00"/>
  
  <!-- Eyes -->
  <circle cx="14.5" cy="15" r="0.8" fill="#FF0000"/>
  <circle cx="17.5" cy="15" r="0.8" fill="#FF0000"/>
  <circle cx="14.5" cy="15" r="0.4" fill="#000000"/>
  <circle cx="17.5" cy="15" r="0.4" fill="#000000"/>
  
  <!-- Mouth -->
  <path d="M15 17 Q16 18 17 17" stroke="#FF0000" stroke-width="1" fill="none"/>
  
  <!-- Flame particles -->
  <circle cx="12" cy="8" r="1" fill="#FF6600" opacity="0.6"/>
  <circle cx="20" cy="10" r="1.5" fill="#FF0000" opacity="0.5"/>
  <circle cx="8" cy="16" r="1" fill="#FFFF00" opacity="0.7"/>
  <circle cx="24" cy="14" r="1" fill="#FF6600" opacity="0.6"/>
  <circle cx="14" cy="24" r="1.2" fill="#FF0000" opacity="0.5"/>
  <circle cx="18" cy="26" r="1" fill="#FF6600" opacity="0.6"/>
  
  <!-- Fire aura -->
  <circle cx="16" cy="16" r="12" fill="none" stroke="#FF6600" stroke-width="0.3" opacity="0.4"/>
  <circle cx="16" cy="16" r="14" fill="none" stroke="#FF0000" stroke-width="0.2" opacity="0.2"/>
</svg>
