<svg width="32" height="32" viewBox="0 0 32 32" xmlns="http://www.w3.org/2000/svg">
  <!-- Void Hound Pet -->
  <defs>
    <radialGradient id="voidBodyGradient" cx="50%" cy="50%">
      <stop offset="0%" stop-color="#2A2A2A"/>
      <stop offset="50%" stop-color="#1A1A1A"/>
      <stop offset="100%" stop-color="#000000"/>
    </radialGradient>
    <radialGradient id="voidEyeGlow" cx="50%" cy="50%">
      <stop offset="0%" stop-color="#FF00FF"/>
      <stop offset="100%" stop-color="#8B008B"/>
    </radialGradient>
  </defs>
  
  <!-- Body -->
  <ellipse cx="16" cy="20" rx="9" ry="5" fill="url(#voidBodyGradient)"/>
  
  <!-- Head -->
  <ellipse cx="16" cy="12" rx="6" ry="5" fill="url(#voidBodyGradient)"/>
  
  <!-- Ears -->
  <path d="M12 8 L10 4 L14 6 Z" fill="#1A1A1A"/>
  <path d="M20 8 L22 4 L18 6 Z" fill="#1A1A1A"/>
  
  <!-- Snout -->
  <ellipse cx="16" cy="15" rx="3" ry="2" fill="#000000"/>
  
  <!-- Eyes (Void purple glow) -->
  <circle cx="14" cy="11" r="1.8" fill="url(#voidEyeGlow)"/>
  <circle cx="18" cy="11" r="1.8" fill="url(#voidEyeGlow)"/>
  <circle cx="14" cy="11" r="1" fill="#FF00FF"/>
  <circle cx="18" cy="11" r="1" fill="#FF00FF"/>
  
  <!-- Nose -->
  <ellipse cx="16" cy="15" rx="1" ry="0.8" fill="#4B0082"/>
  
  <!-- Mouth/fangs -->
  <path d="M14 16 L15 18 L14 17" fill="#FFFFFF"/>
  <path d="M18 16 L17 18 L18 17" fill="#FFFFFF"/>
  
  <!-- Legs -->
  <rect x="9" y="23" width="2.5" height="5" fill="#1A1A1A"/>
  <rect x="13" y="23" width="2.5" height="5" fill="#1A1A1A"/>
  <rect x="17" y="23" width="2.5" height="5" fill="#1A1A1A"/>
  <rect x="21" y="23" width="2.5" height="5" fill="#1A1A1A"/>
  
  <!-- Void claws -->
  <path d="M10 28 L8 30 M10 28 L10 30 M10 28 L12 30" 
        stroke="#8B008B" stroke-width="1"/>
  <path d="M14 28 L12 30 M14 28 L14 30 M14 28 L16 30" 
        stroke="#8B008B" stroke-width="1"/>
  <path d="M18 28 L16 30 M18 28 L18 30 M18 28 L20 30" 
        stroke="#8B008B" stroke-width="1"/>
  <path d="M22 28 L20 30 M22 28 L22 30 M22 28 L24 30" 
        stroke="#8B008B" stroke-width="1"/>
  
  <!-- Tail -->
  <path d="M25 18 Q30 16 28 10 Q26 12 24 16" 
        stroke="#1A1A1A" stroke-width="3" fill="none"/>
  
  <!-- Void energy -->
  <circle cx="16" cy="16" r="13" fill="none" stroke="#8B008B" stroke-width="0.4" opacity="0.5"/>
  <circle cx="16" cy="16" r="15" fill="none" stroke="#FF00FF" stroke-width="0.2" opacity="0.3"/>
  
  <!-- Void particles -->
  <circle cx="8" cy="10" r="0.8" fill="#8B008B" opacity="0.7"/>
  <circle cx="24" cy="8" r="1" fill="#FF00FF" opacity="0.6"/>
  <circle cx="6" cy="20" r="0.6" fill="#8B008B" opacity="0.8"/>
  <circle cx="26" cy="22" r="0.8" fill="#FF00FF" opacity="0.7"/>
</svg>
