<svg width="32" height="32" viewBox="0 0 32 32" xmlns="http://www.w3.org/2000/svg">
  <!-- Phoenix Chick Pet -->
  <defs>
    <radialGradient id="phoenixBodyGradient" cx="50%" cy="50%">
      <stop offset="0%" stop-color="#FFD700"/>
      <stop offset="50%" stop-color="#FF6600"/>
      <stop offset="100%" stop-color="#FF0000"/>
    </radialGradient>
    <radialGradient id="phoenixFlame" cx="50%" cy="50%">
      <stop offset="0%" stop-color="#FFFF00"/>
      <stop offset="70%" stop-color="#FF4500"/>
      <stop offset="100%" stop-color="#8B0000"/>
    </radialGradient>
  </defs>
  
  <!-- Flame aura -->
  <circle cx="16" cy="16" r="14" fill="url(#phoenixFlame)" opacity="0.3"/>
  
  <!-- Wings -->
  <path d="M8 16 Q4 12 6 8 Q10 10 12 14 L16 16 L12 18 Q8 20 8 16" 
        fill="url(#phoenixBodyGradient)"/>
  <path d="M24 16 Q28 12 26 8 Q22 10 20 14 L16 16 L20 18 Q24 20 24 16" 
        fill="url(#phoenixBodyGradient)"/>
  
  <!-- Wing flames -->
  <path d="M6 10 Q4 8 6 6 Q8 8 6 10" fill="#FFFF00" opacity="0.8"/>
  <path d="M26 10 Q28 8 26 6 Q24 8 26 10" fill="#FFFF00" opacity="0.8"/>
  
  <!-- Body -->
  <ellipse cx="16" cy="18" rx="5" ry="4" fill="url(#phoenixBodyGradient)"/>
  
  <!-- Head -->
  <circle cx="16" cy="12" r="4" fill="#FFD700"/>
  
  <!-- Crest feathers -->
  <path d="M14 8 Q12 4 16 6 Q20 4 18 8" fill="#FF6600"/>
  <path d="M15 7 Q14 5 16 6 Q18 5 17 7" fill="#FFFF00"/>
  
  <!-- Beak -->
  <path d="M16 10 L14 8 L18 8 Z" fill="#FF4500"/>
  
  <!-- Eyes (Phoenix fire) -->
  <circle cx="14" cy="11" r="1.2" fill="#FFFF00"/>
  <circle cx="18" cy="11" r="1.2" fill="#FFFF00"/>
  <circle cx="14" cy="11" r="0.6" fill="#FF0000"/>
  <circle cx="18" cy="11" r="0.6" fill="#FF0000"/>
  
  <!-- Tail feathers -->
  <path d="M21 20 Q26 18 28 14 Q26 16 24 18" fill="#FF6600"/>
  <path d="M22 19 Q25 17 26 15" stroke="#FFFF00" stroke-width="1.5" fill="none"/>
  
  <!-- Legs -->
  <rect x="13" y="20" width="1.5" height="4" fill="#FF4500"/>
  <rect x="17.5" y="20" width="1.5" height="4" fill="#FF4500"/>
  
  <!-- Talons -->
  <path d="M13 24 L11 26 M13 24 L13 26 M13 24 L15 26" 
        stroke="#333333" stroke-width="1"/>
  <path d="M18 24 L16 26 M18 24 L18 26 M18 24 L20 26" 
        stroke="#333333" stroke-width="1"/>
  
  <!-- Rebirth flames -->
  <circle cx="10" cy="8" r="1.5" fill="#FFFF00" opacity="0.7"/>
  <circle cx="22" cy="6" r="1.2" fill="#FF6600" opacity="0.6"/>
  <circle cx="8" cy="18" r="1" fill="#FF0000" opacity="0.8"/>
  <circle cx="24" cy="20" r="1.3" fill="#FFFF00" opacity="0.7"/>
  
  <!-- Phoenix aura -->
  <circle cx="16" cy="16" r="13" fill="none" stroke="#FFD700" stroke-width="0.4" opacity="0.5"/>
  <circle cx="16" cy="16" r="15" fill="none" stroke="#FF6600" stroke-width="0.3" opacity="0.3"/>
</svg>
