<svg width="32" height="32" viewBox="0 0 32 32" xmlns="http://www.w3.org/2000/svg">
  <!-- Forest Wolf Pet - Proje stiline uygun -->
  <defs>
    <linearGradient id="wolfBodyGradient" x1="0%" y1="0%" x2="100%" y2="100%">
      <stop offset="0%" stop-color="#4A4A4A"/>
      <stop offset="50%" stop-color="#2A2A2A"/>
      <stop offset="100%" stop-color="#1A1A1A"/>
    </linearGradient>
    <radialGradient id="wolfEyeGlow" cx="50%" cy="50%">
      <stop offset="0%" stop-color="#00FF00"/>
      <stop offset="70%" stop-color="#00AA00"/>
      <stop offset="100%" stop-color="#006600"/>
    </radialGradient>
  </defs>
  
  <!-- Body -->
  <ellipse cx="16" cy="20" rx="10" ry="6" fill="url(#wolfBodyGradient)"/>
  
  <!-- Head -->
  <ellipse cx="16" cy="12" rx="6" ry="5" fill="url(#wolfBodyGradient)"/>
  
  <!-- Ears -->
  <path d="M12 8 L10 4 L14 6 Z" fill="#2A2A2A"/>
  <path d="M20 8 L22 4 L18 6 Z" fill="#2A2A2A"/>
  <path d="M11 7 L11 5 L13 6 Z" fill="#AA0000"/>
  <path d="M19 7 L21 5 L19 6 Z" fill="#AA0000"/>
  
  <!-- Snout -->
  <ellipse cx="16" cy="15" rx="3" ry="2" fill="#1A1A1A"/>
  
  <!-- Eyes (Glowing Green - karakter stiline uygun) -->
  <circle cx="14" cy="11" r="1.5" fill="url(#wolfEyeGlow)"/>
  <circle cx="18" cy="11" r="1.5" fill="url(#wolfEyeGlow)"/>
  <circle cx="14" cy="11" r="0.8" fill="#00FF00"/>
  <circle cx="18" cy="11" r="0.8" fill="#00FF00"/>
  
  <!-- Nose -->
  <ellipse cx="16" cy="15" rx="1" ry="0.8" fill="#000000"/>
  
  <!-- Legs -->
  <rect x="10" y="24" width="2" height="6" fill="#2A2A2A"/>
  <rect x="14" y="24" width="2" height="6" fill="#2A2A2A"/>
  <rect x="18" y="24" width="2" height="6" fill="#2A2A2A"/>
  <rect x="22" y="24" width="2" height="6" fill="#2A2A2A"/>
  
  <!-- Paws -->
  <circle cx="11" cy="30" r="1.5" fill="#1A1A1A"/>
  <circle cx="15" cy="30" r="1.5" fill="#1A1A1A"/>
  <circle cx="19" cy="30" r="1.5" fill="#1A1A1A"/>
  <circle cx="23" cy="30" r="1.5" fill="#1A1A1A"/>
  
  <!-- Tail -->
  <path d="M26 18 Q30 14 28 8 Q26 10 24 16" 
        fill="#2A2A2A" stroke="#1A1A1A" stroke-width="0.5"/>
  
  <!-- Mystical Aura (proje stiline uygun) -->
  <circle cx="16" cy="16" r="14" fill="none" stroke="#00FF00" stroke-width="0.3" opacity="0.4"/>
  <circle cx="16" cy="16" r="16" fill="none" stroke="#00AA00" stroke-width="0.2" opacity="0.2"/>
</svg>
