<svg width="32" height="32" viewBox="0 0 32 32" xmlns="http://www.w3.org/2000/svg">
  <!-- Anoma Spirit Pet (Legendary) -->
  <defs>
    <radialGradient id="anomaSpiritCore" cx="50%" cy="50%">
      <stop offset="0%" stop-color="#FFFFFF"/>
      <stop offset="30%" stop-color="#00FFFF"/>
      <stop offset="70%" stop-color="#9370DB"/>
      <stop offset="100%" stop-color="#4B0082"/>
    </radialGradient>
    <linearGradient id="intentEnergyGradient" x1="0%" y1="0%" x2="100%" y2="100%">
      <stop offset="0%" stop-color="#FFFF00"/>
      <stop offset="33%" stop-color="#00FFFF"/>
      <stop offset="66%" stop-color="#FF00FF"/>
      <stop offset="100%" stop-color="#00FF00"/>
    </linearGradient>
  </defs>
  
  <!-- Outer energy field -->
  <circle cx="16" cy="16" r="14" fill="url(#anomaSpiritCore)" opacity="0.2"/>
  
  <!-- Core spirit form -->
  <circle cx="16" cy="16" r="8" fill="url(#anomaSpiritCore)" opacity="0.8"/>
  
  <!-- Inner essence -->
  <circle cx="16" cy="16" r="4" fill="#FFFFFF"/>
  
  <!-- Intent symbols (floating around) -->
  <g transform="rotate(0 16 16)">
    <circle cx="16" cy="6" r="1.5" fill="url(#intentEnergyGradient)" opacity="0.8"/>
    <text x="16" y="8" text-anchor="middle" font-size="8" fill="#FFFFFF">⚡</text>
  </g>
  
  <g transform="rotate(60 16 16)">
    <circle cx="16" cy="6" r="1.5" fill="url(#intentEnergyGradient)" opacity="0.8"/>
    <text x="16" y="8" text-anchor="middle" font-size="8" fill="#FFFFFF">🔮</text>
  </g>
  
  <g transform="rotate(120 16 16)">
    <circle cx="16" cy="6" r="1.5" fill="url(#intentEnergyGradient)" opacity="0.8"/>
    <text x="16" y="8" text-anchor="middle" font-size="8" fill="#FFFFFF">✨</text>
  </g>
  
  <g transform="rotate(180 16 16)">
    <circle cx="16" cy="6" r="1.5" fill="url(#intentEnergyGradient)" opacity="0.8"/>
    <text x="16" y="8" text-anchor="middle" font-size="8" fill="#FFFFFF">🌟</text>
  </g>
  
  <g transform="rotate(240 16 16)">
    <circle cx="16" cy="6" r="1.5" fill="url(#intentEnergyGradient)" opacity="0.8"/>
    <text x="16" y="8" text-anchor="middle" font-size="8" fill="#FFFFFF">💫</text>
  </g>
  
  <g transform="rotate(300 16 16)">
    <circle cx="16" cy="6" r="1.5" fill="url(#intentEnergyGradient)" opacity="0.8"/>
    <text x="16" y="8" text-anchor="middle" font-size="8" fill="#FFFFFF">⭐</text>
  </g>
  
  <!-- Central Anoma symbol -->
  <circle cx="16" cy="16" r="2" fill="#CC0000"/>
  <text x="16" y="18" text-anchor="middle" font-size="10" fill="#FFFFFF">A</text>
  
  <!-- Energy waves -->
  <circle cx="16" cy="16" r="10" fill="none" stroke="url(#intentEnergyGradient)" stroke-width="0.5" opacity="0.6"/>
  <circle cx="16" cy="16" r="12" fill="none" stroke="url(#intentEnergyGradient)" stroke-width="0.3" opacity="0.4"/>
  <circle cx="16" cy="16" r="14" fill="none" stroke="url(#intentEnergyGradient)" stroke-width="0.2" opacity="0.2"/>
</svg>
