<svg width="32" height="32" viewBox="0 0 32 32" xmlns="http://www.w3.org/2000/svg">
  <!-- Crystal Bat Pet -->
  <defs>
    <linearGradient id="crystalWingGradient" x1="0%" y1="0%" x2="100%" y2="100%">
      <stop offset="0%" stop-color="#9370DB"/>
      <stop offset="50%" stop-color="#6A5ACD"/>
      <stop offset="100%" stop-color="#483D8B"/>
    </linearGradient>
    <radialGradient id="crystalGlow" cx="50%" cy="50%">
      <stop offset="0%" stop-color="#00FFFF"/>
      <stop offset="100%" stop-color="#0088AA"/>
    </radialGradient>
  </defs>
  
  <!-- Wings (Crystal-like) -->
  <path d="M8 16 Q4 12 6 8 Q10 10 12 14 L16 16 L12 18 Q8 20 8 16" 
        fill="url(#crystalWingGradient)" opacity="0.8"/>
  <path d="M24 16 Q28 12 26 8 Q22 10 20 14 L16 16 L20 18 Q24 20 24 16" 
        fill="url(#crystalWingGradient)" opacity="0.8"/>
  
  <!-- Wing crystals -->
  <polygon points="6,10 8,8 10,10 8,12" fill="#00FFFF"/>
  <polygon points="26,10 24,8 22,10 24,12" fill="#00FFFF"/>
  
  <!-- Body -->
  <ellipse cx="16" cy="18" rx="4" ry="3" fill="#2A2A2A"/>
  
  <!-- Head -->
  <circle cx="16" cy="14" r="3" fill="#1A1A1A"/>
  
  <!-- Ears -->
  <path d="M13 11 L12 8 L15 10 Z" fill="#2A2A2A"/>
  <path d="M19 11 L20 8 L17 10 Z" fill="#2A2A2A"/>
  
  <!-- Eyes (Crystal blue) -->
  <circle cx="14.5" cy="13" r="1" fill="url(#crystalGlow)"/>
  <circle cx="17.5" cy="13" r="1" fill="url(#crystalGlow)"/>
  
  <!-- Crystal formations on body -->
  <polygon points="14,16 15,14 16,16 15,18" fill="#00FFFF" opacity="0.6"/>
  <polygon points="17,17 18,15 19,17 18,19" fill="#00FFFF" opacity="0.6"/>
  
  <!-- Mystical aura -->
  <circle cx="16" cy="16" r="12" fill="none" stroke="#00FFFF" stroke-width="0.3" opacity="0.3"/>
</svg>
