<svg width="32" height="32" viewBox="0 0 32 32" xmlns="http://www.w3.org/2000/svg">
  <!-- Default Player Character -->
  <defs>
    <radialGradient id="defaultSkinGradient" cx="50%" cy="30%">
      <stop offset="0%" stop-color="#F4C2A1"/>
      <stop offset="100%" stop-color="#E6A584"/>
    </radialGradient>
    <linearGradient id="defaultArmorGradient" x1="0%" y1="0%" x2="100%" y2="100%">
      <stop offset="0%" stop-color="#4A90E2"/>
      <stop offset="100%" stop-color="#357ABD"/>
    </linearGradient>
  </defs>
  
  <!-- Body -->
  <rect x="11" y="18" width="10" height="10" fill="url(#defaultArmorGradient)" rx="2"/>
  
  <!-- Head -->
  <circle cx="16" cy="12" r="6" fill="url(#defaultSkinGradient)"/>
  
  <!-- Hair -->
  <path d="M10 9 Q16 6 22 9 Q19 7 16 7 Q13 7 10 9" fill="#8B4513"/>
  
  <!-- Eyes -->
  <circle cx="13" cy="11" r="1" fill="#000"/>
  <circle cx="19" cy="11" r="1" fill="#000"/>
  <circle cx="13.5" cy="10.5" r="0.3" fill="#FFF"/>
  <circle cx="19.5" cy="10.5" r="0.3" fill="#FFF"/>
  
  <!-- Nose -->
  <circle cx="16" cy="13" r="0.8" fill="#E6A584"/>
  
  <!-- Mouth -->
  <path d="M14 15 Q16 16 18 15" stroke="#8B4513" stroke-width="0.5" fill="none"/>
  
  <!-- Arms -->
  <rect x="7" y="20" width="4" height="6" fill="url(#defaultSkinGradient)" rx="2"/>
  <rect x="21" y="20" width="4" height="6" fill="url(#defaultSkinGradient)" rx="2"/>
  
  <!-- Legs -->
  <rect x="12" y="28" width="3" height="4" fill="#654321" rx="1"/>
  <rect x="17" y="28" width="3" height="4" fill="#654321" rx="1"/>
  
  <!-- Cape -->
  <path d="M11 18 Q16 16 21 18 Q18 24 16 26 Q14 24 11 18" fill="#9C27B0" opacity="0.8"/>
</svg>
