<svg width="32" height="32" viewBox="0 0 32 32" xmlns="http://www.w3.org/2000/svg">
  <!-- Skeleton Enemy -->
  <defs>
    <radialGradient id="boneGradient" cx="50%" cy="30%">
      <stop offset="0%" stop-color="#F5F5DC"/>
      <stop offset="100%" stop-color="#DDD8C0"/>
    </radialGradient>
  </defs>
  
  <!-- Skull -->
  <circle cx="16" cy="10" r="6" fill="url(#boneGradient)" stroke="#8B7355" stroke-width="0.5"/>
  
  <!-- Eye sockets -->
  <circle cx="13" cy="9" r="2" fill="#000"/>
  <circle cx="19" cy="9" r="2" fill="#000"/>
  <circle cx="13" cy="9" r="0.8" fill="#FF0000" opacity="0.8"/>
  <circle cx="19" cy="9" r="0.8" fill="#FF0000" opacity="0.8"/>
  
  <!-- Nasal cavity -->
  <path d="M16 11 L15 14 L17 14 Z" fill="#000"/>
  
  <!-- Jaw -->
  <rect x="13" y="14" width="6" height="2" fill="url(#boneGradient)" rx="1"/>
  <rect x="14" y="15" width="1" height="2" fill="#000"/>
  <rect x="16" y="15" width="1" height="2" fill="#000"/>
  <rect x="18" y="15" width="1" height="2" fill="#000"/>
  
  <!-- Spine/body -->
  <rect x="15" y="16" width="2" height="8" fill="url(#boneGradient)"/>
  
  <!-- Ribcage -->
  <path d="M12 18 Q16 20 20 18" stroke="url(#boneGradient)" stroke-width="1" fill="none"/>
  <path d="M12 20 Q16 22 20 20" stroke="url(#boneGradient)" stroke-width="1" fill="none"/>
  <path d="M12 22 Q16 24 20 22" stroke="url(#boneGradient)" stroke-width="1" fill="none"/>
  
  <!-- Arms -->
  <rect x="9" y="18" width="2" height="6" fill="url(#boneGradient)" rx="1"/>
  <rect x="21" y="18" width="2" height="6" fill="url(#boneGradient)" rx="1"/>
  
  <!-- Hands -->
  <circle cx="10" cy="25" r="1.5" fill="url(#boneGradient)"/>
  <circle cx="22" cy="25" r="1.5" fill="url(#boneGradient)"/>
  
  <!-- Legs -->
  <rect x="13" y="24" width="2" height="6" fill="url(#boneGradient)" rx="1"/>
  <rect x="17" y="24" width="2" height="6" fill="url(#boneGradient)" rx="1"/>
  
  <!-- Feet -->
  <ellipse cx="14" cy="31" rx="2" ry="1" fill="url(#boneGradient)"/>
  <ellipse cx="18" cy="31" rx="2" ry="1" fill="url(#boneGradient)"/>
</svg>
