<svg width="32" height="32" viewBox="0 0 32 32" xmlns="http://www.w3.org/2000/svg">
  <!-- Spider Character -->
  <defs>
    <radialGradient id="spiderBody" cx="50%" cy="50%">
      <stop offset="0%" stop-color="#8B0000"/>
      <stop offset="70%" stop-color="#800000"/>
      <stop offset="100%" stop-color="#4B0000"/>
    </radialGradient>
    <radialGradient id="spiderLegs" cx="50%" cy="50%">
      <stop offset="0%" stop-color="#696969"/>
      <stop offset="100%" stop-color="#2F2F2F"/>
    </radialGradient>
  </defs>
  
  <!-- Body -->
  <circle cx="16" cy="16" r="4" fill="url(#spiderBody)"/>
  
  <!-- Head -->
  <circle cx="16" cy="10" r="3" fill="url(#spiderBody)"/>
  
  <!-- Eyes -->
  <circle cx="14" cy="9" r="0.8" fill="#FF0000"/>
  <circle cx="18" cy="9" r="0.8" fill="#FF0000"/>
  <circle cx="15" cy="11" r="0.6" fill="#FF0000"/>
  <circle cx="17" cy="11" r="0.6" fill="#FF0000"/>
  
  <!-- Legs -->
  <!-- Front legs -->
  <line x1="12" y1="8" x2="8" y2="4" stroke="url(#spiderLegs)" stroke-width="1.5"/>
  <line x1="20" y1="8" x2="24" y2="4" stroke="url(#spiderLegs)" stroke-width="1.5"/>
  
  <!-- Middle front legs -->
  <line x1="13" y1="10" x2="10" y2="6" stroke="url(#spiderLegs)" stroke-width="1.5"/>
  <line x1="19" y1="10" x2="22" y2="6" stroke="url(#spiderLegs)" stroke-width="1.5"/>
  
  <!-- Middle back legs -->
  <line x1="13" y1="12" x2="10" y2="16" stroke="url(#spiderLegs)" stroke-width="1.5"/>
  <line x1="19" y1="12" x2="22" y2="16" stroke="url(#spiderLegs)" stroke-width="1.5"/>
  
  <!-- Back legs -->
  <line x1="12" y1="14" x2="8" y2="18" stroke="url(#spiderLegs)" stroke-width="1.5"/>
  <line x1="20" y1="14" x2="24" y2="18" stroke="url(#spiderLegs)" stroke-width="1.5"/>
  
  <!-- Fangs -->
  <path d="M15 12 L14 14" stroke="#FFD700" stroke-width="1"/>
  <path d="M17 12 L18 14" stroke="#FFD700" stroke-width="1"/>
  
  <!-- Web spinner -->
  <circle cx="16" cy="20" r="1" fill="#FFFFFF" opacity="0.7"/>
</svg>