<?xml version="1.0" encoding="UTF-8"?>
<svg width="32" height="32" viewBox="0 0 32 32" xmlns="http://www.w3.org/2000/svg">
  <!-- Svirfneblin Character -->
  
  <!-- Body -->
  <ellipse cx="16" cy="22" rx="6" ry="9" fill="#8b4513"/>
  
  <!-- Head -->
  <circle cx="16" cy="10" r="6" fill="#d2b48c"/>
  
  <!-- Eyes - large, dark -->
  <circle cx="14" cy="9" r="1.5" fill="#1a1a1a"/>
  <circle cx="18" cy="9" r="1.5" fill="#1a1a1a"/>
  <circle cx="14.25" cy="8.75" r="0.5" fill="#ffffff"/>
  <circle cx="18.25" cy="8.75" r="0.5" fill="#ffffff"/>
  
  <!-- Nose - small and pointed -->
  <polygon points="16,11 15,12.5 17,12.5" fill="#b8860b"/>
  
  <!-- Mouth - small -->
  <ellipse cx="16" cy="14" rx="1" ry="0.5" fill="#8b0000"/>
  
  <!-- Ears - pointed -->
  <polygon points="10,7.5 11,5 12.5,7.5" fill="#d2b48c"/>
  <polygon points="22,7.5 21,5 19.5,7.5" fill="#d2b48c"/>
  
  <!-- Hair - wild and unkempt -->
  <path d="M 10 6 Q 12.5 4 16 5 Q 19.5 4 22 6 Q 21 7.5 20 9 Q 19 7.5 16 8 Q 13 7.5 12 9 Q 11 7.5 10 6" fill="#654321"/>
  
  <!-- Arms -->
  <ellipse cx="10" cy="20" rx="2" ry="6" fill="#8b4513" transform="rotate(-20 10 20)"/>
  <ellipse cx="22" cy="20" rx="2" ry="6" fill="#8b4513" transform="rotate(20 22 20)"/>
  
  <!-- Hands -->
  <circle cx="9" cy="25" r="1.5" fill="#d2b48c"/>
  <circle cx="23" cy="25" r="1.5" fill="#d2b48c"/>
  
  <!-- Legs -->
  <ellipse cx="14" cy="30" rx="1.5" ry="4" fill="#8b4513"/>
  <ellipse cx="18" cy="30" rx="1.5" ry="4" fill="#8b4513"/>
  
  <!-- Feet -->
  <ellipse cx="14" cy="34" rx="2" ry="1" fill="#654321"/>
  <ellipse cx="18" cy="34" rx="2" ry="1" fill="#654321"/>
  
  <!-- Clothing - simple tunic -->
  <ellipse cx="16" cy="22" rx="5" ry="7.5" fill="#556b2f" opacity="0.8"/>
  
  <!-- Belt -->
  <rect x="11" y="21" width="10" height="1.5" fill="#8b4513"/>
  
  <!-- Underground aura effect -->
  <circle cx="16" cy="16" r="12" fill="none" stroke="#8b4513" stroke-width="0.5" opacity="0.3">
    <animate attributeName="r" values="12;14;12" dur="3s" repeatCount="indefinite"/>
  </circle>
</svg>
