<svg width="32" height="32" viewBox="0 0 32 32" xmlns="http://www.w3.org/2000/svg">
  <!-- Tiefling Male Character -->
  <defs>
    <linearGradient id="tieflingSkinGradient" x1="0%" y1="0%" x2="100%" y2="100%">
      <stop offset="0%" stop-color="#8B0000"/>
      <stop offset="50%" stop-color="#A0522D"/>
      <stop offset="100%" stop-color="#CD853F"/>
    </linearGradient>
    <radialGradient id="tieflingEyeGlow" cx="50%" cy="50%">
      <stop offset="0%" stop-color="#FFFF00"/>
      <stop offset="100%" stop-color="#FF6600"/>
    </radialGradient>
  </defs>
  
  <!-- Body -->
  <ellipse cx="16" cy="22" rx="6" ry="9" fill="url(#tieflingSkinGradient)"/>
  
  <!-- Head -->
  <circle cx="16" cy="12" r="4.5" fill="url(#tieflingSkinGradient)"/>
  
  <!-- Horns (curved) -->
  <path d="M13 8 Q10 4 8 6 Q10 8 12 10" 
        stroke="#2F2F2F" stroke-width="2" fill="none"/>
  <path d="M19 8 Q22 4 24 6 Q22 8 20 10" 
        stroke="#2F2F2F" stroke-width="2" fill="none"/>
  
  <!-- Hair -->
  <path d="M12 10 Q16 8 20 10 Q18 12 16 12 Q14 12 12 10" 
        fill="#000000"/>
  
  <!-- Eyes (Fiendish glow) -->
  <circle cx="14" cy="11" r="1.3" fill="url(#tieflingEyeGlow)"/>
  <circle cx="18" cy="11" r="1.3" fill="url(#tieflingEyeGlow)"/>
  <ellipse cx="14" cy="11" rx="0.8" ry="1" fill="#FFFF00"/>
  <ellipse cx="18" cy="11" rx="0.8" ry="1" fill="#FFFF00"/>
  
  <!-- Nose -->
  <ellipse cx="16" cy="13" rx="0.8" ry="1" fill="#A0522D"/>
  
  <!-- Mouth -->
  <path d="M14 15 Q16 16 18 15" stroke="#8B0000" stroke-width="1" fill="none"/>
  
  <!-- Small fangs -->
  <circle cx="15" cy="15.5" r="0.3" fill="#FFFFFF"/>
  <circle cx="17" cy="15.5" r="0.3" fill="#FFFFFF"/>
  
  <!-- Arms -->
  <ellipse cx="10" cy="20" rx="2" ry="6" fill="url(#tieflingSkinGradient)"/>
  <ellipse cx="22" cy="20" rx="2" ry="6" fill="url(#tieflingSkinGradient)"/>
  
  <!-- Hands -->
  <circle cx="8" cy="24" r="1.5" fill="url(#tieflingSkinGradient)"/>
  <circle cx="24" cy="24" r="1.5" fill="url(#tieflingSkinGradient)"/>
  
  <!-- Legs -->
  <ellipse cx="13" cy="28" rx="2" ry="4" fill="url(#tieflingSkinGradient)"/>
  <ellipse cx="19" cy="28" rx="2" ry="4" fill="url(#tieflingSkinGradient)"/>
  
  <!-- Tail -->
  <path d="M22 26 Q26 28 28 24 Q26 26 24 26" 
        stroke="url(#tieflingSkinGradient)" stroke-width="2.5" fill="none"/>
  <path d="M28 24 L30 22 L28 20" stroke="#8B0000" stroke-width="1" fill="none"/>
  
  <!-- Clothing -->
  <rect x="13" y="18" width="6" height="8" fill="#4B0082"/>
  <rect x="14" y="19" width="4" height="2" fill="#8B008B"/>
  
  <!-- Infernal markings -->
  <path d="M12 16 Q14 14 16 16" stroke="#FF4500" stroke-width="0.8" fill="none"/>
  <path d="M20 16 Q18 14 16 16" stroke="#FF4500" stroke-width="0.8" fill="none"/>
  
  <!-- Fiendish aura -->
  <circle cx="16" cy="16" r="12" fill="none" stroke="#FF4500" stroke-width="0.3" opacity="0.4"/>
</svg>
