<svg width="32" height="32" viewBox="0 0 32 32" xmlns="http://www.w3.org/2000/svg">
  <!-- Wolf Character -->
  <defs>
    <radialGradient id="wolfFur" cx="50%" cy="50%">
      <stop offset="0%" stop-color="#C0C0C0"/>
      <stop offset="70%" stop-color="#808080"/>
      <stop offset="100%" stop-color="#696969"/>
    </radialGradient>
    <radialGradient id="wolfDark" cx="50%" cy="50%">
      <stop offset="0%" stop-color="#696969"/>
      <stop offset="100%" stop-color="#2F2F2F"/>
    </radialGradient>
  </defs>
  
  <!-- Body -->
  <ellipse cx="16" cy="20" rx="8" ry="4" fill="url(#wolfFur)"/>
  
  <!-- Head -->
  <ellipse cx="16" cy="10" rx="5" ry="3" fill="url(#wolfFur)"/>
  
  <!-- Snout -->
  <ellipse cx="16" cy="8" rx="2" ry="1.5" fill="url(#wolfDark)"/>
  
  <!-- Eyes -->
  <circle cx="14" cy="9" r="0.8" fill="#FFD700"/>
  <circle cx="18" cy="9" r="0.8" fill="#FFD700"/>
  
  <!-- Nose -->
  <circle cx="16" cy="7" r="0.5" fill="#000000"/>
  
  <!-- Ears -->
  <ellipse cx="12" cy="6" rx="1" ry="2" fill="url(#wolfDark)"/>
  <ellipse cx="20" cy="6" rx="1" ry="2" fill="url(#wolfDark)"/>
  
  <!-- Legs -->
  <rect x="12" y="22" width="2" height="6" fill="url(#wolfDark)"/>
  <rect x="18" y="22" width="2" height="6" fill="url(#wolfDark)"/>
  <rect x="14" y="24" width="2" height="6" fill="url(#wolfDark)"/>
  <rect x="16" y="24" width="2" height="6" fill="url(#wolfDark)"/>
  
  <!-- Tail -->
  <ellipse cx="24" cy="18" rx="3" ry="1" fill="url(#wolfFur)"/>
  
  <!-- Claws -->
  <circle cx="13" cy="28" r="0.5" fill="#2F2F2F"/>
  <circle cx="19" cy="28" r="0.5" fill="#2F2F2F"/>
  <circle cx="15" cy="30" r="0.5" fill="#2F2F2F"/>
  <circle cx="17" cy="30" r="0.5" fill="#2F2F2F"/>
</svg>
