<svg width="32" height="32" viewBox="0 0 32 32" xmlns="http://www.w3.org/2000/svg">
  <!-- Grass Tile -->
  <defs>
    <radialGradient id="grassGradient" cx="50%" cy="50%">
      <stop offset="0%" stop-color="#32CD32"/>
      <stop offset="70%" stop-color="#228B22"/>
      <stop offset="100%" stop-color="#006400"/>
    </radialGradient>
  </defs>
  
  <!-- Base grass -->
  <rect width="32" height="32" fill="url(#grassGradient)"/>
  
  <!-- Grass texture -->
  <g opacity="0.6">
    <!-- Grass blades -->
    <path d="M4 28 Q5 24 6 28" stroke="#90EE90" stroke-width="1" fill="none"/>
    <path d="M8 30 Q9 26 10 30" stroke="#90EE90" stroke-width="1" fill="none"/>
    <path d="M12 29 Q13 25 14 29" stroke="#90EE90" stroke-width="1" fill="none"/>
    <path d="M16 31 Q17 27 18 31" stroke="#90EE90" stroke-width="1" fill="none"/>
    <path d="M20 28 Q21 24 22 28" stroke="#90EE90" stroke-width="1" fill="none"/>
    <path d="M24 30 Q25 26 26 30" stroke="#90EE90" stroke-width="1" fill="none"/>
    <path d="M28 29 Q29 25 30 29" stroke="#90EE90" stroke-width="1" fill="none"/>
    
    <!-- Small flowers -->
    <circle cx="7" cy="12" r="1" fill="#FFD700"/>
    <circle cx="23" cy="8" r="1" fill="#FF69B4"/>
    <circle cx="15" cy="18" r="1" fill="#FFF"/>
  </g>
  
  <!-- Dirt patches -->
  <g opacity="0.3">
    <circle cx="10" cy="22" r="2" fill="#8B4513"/>
    <circle cx="25" cy="15" r="1.5" fill="#8B4513"/>
  </g>
</svg>
