<svg width="32" height="32" viewBox="0 0 32 32" xmlns="http://www.w3.org/2000/svg">
  <!-- Lava Tile -->
  <defs>
    <linearGradient id="lavaGradient" x1="0%" y1="0%" x2="100%" y2="100%">
      <stop offset="0%" stop-color="#FF6B35"/>
      <stop offset="30%" stop-color="#FF4500"/>
      <stop offset="70%" stop-color="#DC143C"/>
      <stop offset="100%" stop-color="#8B0000"/>
    </linearGradient>
    <radialGradient id="lavaGlow" cx="50%" cy="50%">
      <stop offset="0%" stop-color="#FFD700"/>
      <stop offset="40%" stop-color="#FF4500"/>
      <stop offset="100%" stop-color="#8B0000"/>
    </radialGradient>
  </defs>
  
  <!-- Base lava -->
  <rect x="0" y="0" width="32" height="32" fill="url(#lavaGradient)"/>
  
  <!-- Lava bubbles -->
  <circle cx="8" cy="8" r="3" fill="url(#lavaGlow)" opacity="0.8"/>
  <circle cx="20" cy="12" r="2.5" fill="url(#lavaGlow)" opacity="0.7"/>
  <circle cx="12" cy="20" r="2" fill="url(#lavaGlow)" opacity="0.9"/>
  <circle cx="26" cy="22" r="2.8" fill="url(#lavaGlow)" opacity="0.6"/>
  <circle cx="6" cy="26" r="2.2" fill="url(#lavaGlow)" opacity="0.8"/>
  
  <!-- Flowing lava streams -->
  <path d="M0 10 Q8 6 16 10 Q24 14 32 10 L32 14 Q24 18 16 14 Q8 10 0 14 Z" 
        fill="#FF8C00" opacity="0.7"/>
  
  <path d="M0 18 Q8 14 16 18 Q24 22 32 18 L32 22 Q24 26 16 22 Q8 18 0 22 Z" 
        fill="#FF6347" opacity="0.6"/>
  
  <!-- Hot spots -->
  <circle cx="14" cy="6" r="1.5" fill="#FFD700" opacity="0.9"/>
  <circle cx="22" cy="16" r="1.2" fill="#FFD700" opacity="0.8"/>
  <circle cx="10" cy="28" r="1.3" fill="#FFD700" opacity="0.7"/>
  
  <!-- Ember particles -->
  <circle cx="4" cy="4" r="0.3" fill="#FFA500"/>
  <circle cx="28" cy="8" r="0.4" fill="#FFA500"/>
  <circle cx="16" cy="24" r="0.3" fill="#FFA500"/>
  <circle cx="30" cy="30" r="0.4" fill="#FFA500"/>
  
  <!-- Cracks -->
  <path d="M12 0 L14 8 L16 16 L18 24 L20 32" stroke="#8B0000" stroke-width="0.5" fill="none" opacity="0.8"/>
  <path d="M0 12 L8 14 L16 12 L24 16 L32 14" stroke="#8B0000" stroke-width="0.4" fill="none" opacity="0.6"/>
</svg>
