<svg width="32" height="32" viewBox="0 0 32 32" xmlns="http://www.w3.org/2000/svg">
  <!-- Sand Tile -->
  <defs>
    <linearGradient id="sandGradient" x1="0%" y1="0%" x2="100%" y2="100%">
      <stop offset="0%" stop-color="#F4E4BC"/>
      <stop offset="50%" stop-color="#DEB887"/>
      <stop offset="100%" stop-color="#D2B48C"/>
    </linearGradient>
  </defs>
  
  <!-- Base sand -->
  <rect x="0" y="0" width="32" height="32" fill="url(#sandGradient)"/>
  
  <!-- Sand texture pattern -->
  <g opacity="0.3">
    <circle cx="4" cy="4" r="0.5" fill="#CD853F"/>
    <circle cx="12" cy="2" r="0.3" fill="#CD853F"/>
    <circle cx="20" cy="6" r="0.4" fill="#CD853F"/>
    <circle cx="28" cy="3" r="0.3" fill="#CD853F"/>
    <circle cx="8" cy="10" r="0.4" fill="#CD853F"/>
    <circle cx="16" cy="8" r="0.3" fill="#CD853F"/>
    <circle cx="24" cy="12" r="0.5" fill="#CD853F"/>
    <circle cx="30" cy="10" r="0.3" fill="#CD853F"/>
    <circle cx="2" cy="16" r="0.4" fill="#CD853F"/>
    <circle cx="10" cy="18" r="0.3" fill="#CD853F"/>
    <circle cx="18" cy="14" r="0.4" fill="#CD853F"/>
    <circle cx="26" cy="20" r="0.3" fill="#CD853F"/>
    <circle cx="6" cy="24" r="0.5" fill="#CD853F"/>
    <circle cx="14" cy="26" r="0.3" fill="#CD853F"/>
    <circle cx="22" cy="28" r="0.4" fill="#CD853F"/>
    <circle cx="30" cy="26" r="0.3" fill="#CD853F"/>
  </g>
  
  <!-- Sand dunes -->
  <path d="M0 20 Q8 16 16 20 Q24 24 32 20 L32 32 L0 32 Z" 
        fill="#D2B48C" opacity="0.4"/>
  
  <!-- Wind patterns -->
  <path d="M0 12 Q16 10 32 12" stroke="#CD853F" stroke-width="0.3" fill="none" opacity="0.5"/>
  <path d="M0 18 Q16 16 32 18" stroke="#CD853F" stroke-width="0.2" fill="none" opacity="0.4"/>
</svg>
