<svg width="32" height="32" viewBox="0 0 32 32" xmlns="http://www.w3.org/2000/svg">
  <!-- Snow Tile -->
  <defs>
    <radialGradient id="snowGradient" cx="50%" cy="50%">
      <stop offset="0%" stop-color="#FFFFFF"/>
      <stop offset="70%" stop-color="#F0F8FF"/>
      <stop offset="100%" stop-color="#E6F3FF"/>
    </radialGradient>
  </defs>
  
  <!-- Base snow -->
  <rect x="0" y="0" width="32" height="32" fill="url(#snowGradient)"/>
  
  <!-- Snow texture -->
  <g opacity="0.4">
    <circle cx="5" cy="5" r="1" fill="#E0E0E0"/>
    <circle cx="15" cy="3" r="0.8" fill="#E0E0E0"/>
    <circle cx="25" cy="7" r="1.2" fill="#E0E0E0"/>
    <circle cx="8" cy="12" r="0.9" fill="#E0E0E0"/>
    <circle cx="22" cy="14" r="1.1" fill="#E0E0E0"/>
    <circle cx="12" cy="20" r="0.7" fill="#E0E0E0"/>
    <circle cx="28" cy="22" r="1" fill="#E0E0E0"/>
    <circle cx="4" cy="26" r="0.8" fill="#E0E0E0"/>
    <circle cx="18" cy="28" r="1.3" fill="#E0E0E0"/>
  </g>
  
  <!-- Snowflakes -->
  <g fill="#B0C4DE" opacity="0.7">
    <!-- Snowflake 1 -->
    <g transform="translate(10,10)">
      <line x1="0" y1="-3" x2="0" y2="3" stroke="#B0C4DE" stroke-width="0.5"/>
      <line x1="-3" y1="0" x2="3" y2="0" stroke="#B0C4DE" stroke-width="0.5"/>
      <line x1="-2" y1="-2" x2="2" y2="2" stroke="#B0C4DE" stroke-width="0.3"/>
      <line x1="-2" y1="2" x2="2" y2="-2" stroke="#B0C4DE" stroke-width="0.3"/>
    </g>
    
    <!-- Snowflake 2 -->
    <g transform="translate(22,20)">
      <line x1="0" y1="-2" x2="0" y2="2" stroke="#B0C4DE" stroke-width="0.4"/>
      <line x1="-2" y1="0" x2="2" y2="0" stroke="#B0C4DE" stroke-width="0.4"/>
      <line x1="-1.5" y1="-1.5" x2="1.5" y2="1.5" stroke="#B0C4DE" stroke-width="0.3"/>
      <line x1="-1.5" y1="1.5" x2="1.5" y2="-1.5" stroke="#B0C4DE" stroke-width="0.3"/>
    </g>
  </g>
  
  <!-- Ice crystals -->
  <path d="M6 18 L8 16 L10 18 L8 20 Z" fill="#B0E0E6" opacity="0.6"/>
  <path d="M24 8 L26 6 L28 8 L26 10 Z" fill="#B0E0E6" opacity="0.5"/>
</svg>
