<svg width="32" height="32" viewBox="0 0 32 32" xmlns="http://www.w3.org/2000/svg">
  <!-- Water Tile -->
  <defs>
    <linearGradient id="waterGradient" x1="0%" y1="0%" x2="100%" y2="100%">
      <stop offset="0%" stop-color="#64B5F6"/>
      <stop offset="50%" stop-color="#2196F3"/>
      <stop offset="100%" stop-color="#1565C0"/>
    </linearGradient>
    <radialGradient id="waveGradient" cx="50%" cy="50%">
      <stop offset="0%" stop-color="#87CEEB"/>
      <stop offset="100%" stop-color="#4169E1"/>
    </radialGradient>
  </defs>
  
  <!-- Base water -->
  <rect x="0" y="0" width="32" height="32" fill="url(#waterGradient)"/>
  
  <!-- Wave patterns -->
  <path d="M0 8 Q8 4 16 8 Q24 12 32 8 L32 16 Q24 20 16 16 Q8 12 0 16 Z" 
        fill="url(#waveGradient)" opacity="0.6"/>
  
  <path d="M0 16 Q8 12 16 16 Q24 20 32 16 L32 24 Q24 28 16 24 Q8 20 0 24 Z" 
        fill="url(#waveGradient)" opacity="0.4"/>
  
  <!-- Water sparkles -->
  <circle cx="8" cy="6" r="0.8" fill="#FFFFFF" opacity="0.8"/>
  <circle cx="20" cy="10" r="0.6" fill="#FFFFFF" opacity="0.7"/>
  <circle cx="12" cy="20" r="0.7" fill="#FFFFFF" opacity="0.6"/>
  <circle cx="26" cy="18" r="0.5" fill="#FFFFFF" opacity="0.9"/>
  <circle cx="6" cy="26" r="0.6" fill="#FFFFFF" opacity="0.7"/>
  
  <!-- Ripple effects -->
  <circle cx="16" cy="16" r="4" fill="none" stroke="#87CEEB" stroke-width="0.5" opacity="0.5"/>
  <circle cx="16" cy="16" r="6" fill="none" stroke="#87CEEB" stroke-width="0.3" opacity="0.3"/>
</svg>
