<svg width="32" height="32" viewBox="0 0 32 32" xmlns="http://www.w3.org/2000/svg">
  <!-- Adult Shrimp -->
  <defs>
    <linearGradient id="adultShrimpGradient" x1="0%" y1="0%" x2="100%" y2="100%">
      <stop offset="0%" stop-color="#FF6347"/>
      <stop offset="50%" stop-color="#FF4500"/>
      <stop offset="100%" stop-color="#FF0000"/>
    </linearGradient>
  </defs>
  
  <!-- Body -->
  <ellipse cx="16" cy="16" rx="12" ry="4" fill="url(#adultShrimpGradient)"/>
  
  <!-- Body segments -->
  <ellipse cx="10" cy="16" rx="2" ry="3" fill="#FF0000" opacity="0.6"/>
  <ellipse cx="14" cy="16" rx="2" ry="3" fill="#FF0000" opacity="0.6"/>
  <ellipse cx="18" cy="16" rx="2" ry="3" fill="#FF0000" opacity="0.6"/>
  <ellipse cx="22" cy="16" rx="2" ry="3" fill="#FF0000" opacity="0.6"/>
  
  <!-- Head -->
  <ellipse cx="6" cy="16" rx="4" ry="3" fill="#FF4500"/>
  
  <!-- Eyes -->
  <circle cx="4" cy="14" r="1.2" fill="#000000"/>
  <circle cx="4" cy="18" r="1.2" fill="#000000"/>
  <circle cx="4" cy="14" r="0.6" fill="#FFFFFF"/>
  <circle cx="4" cy="18" r="0.6" fill="#FFFFFF"/>
  
  <!-- Antennae -->
  <line x1="2" y1="12" x2="0" y2="8" stroke="#FF1493" stroke-width="1.2"/>
  <line x1="2" y1="20" x2="0" y2="24" stroke="#FF1493" stroke-width="1.2"/>
  <line x1="3" y1="10" x2="1" y2="6" stroke="#FF1493" stroke-width="1"/>
  <line x1="3" y1="22" x2="1" y2="26" stroke="#FF1493" stroke-width="1"/>
  
  <!-- Tail fan -->
  <path d="M28 16 Q30 12 32 16 Q30 20 28 16" fill="#FF6347"/>
  <path d="M28 14 Q30 10 32 14" stroke="#FF4500" stroke-width="1" fill="none"/>
  <path d="M28 18 Q30 22 32 18" stroke="#FF4500" stroke-width="1" fill="none"/>
  
  <!-- Swimming legs -->
  <line x1="8" y1="18" x2="7" y2="22" stroke="#FF1493" stroke-width="1"/>
  <line x1="12" y1="18" x2="11" y2="22" stroke="#FF1493" stroke-width="1"/>
  <line x1="16" y1="18" x2="15" y2="22" stroke="#FF1493" stroke-width="1"/>
  <line x1="20" y1="18" x2="19" y2="22" stroke="#FF1493" stroke-width="1"/>
  <line x1="24" y1="18" x2="23" y2="22" stroke="#FF1493" stroke-width="1"/>
  
  <!-- Quality indicator -->
  <circle cx="26" cy="8" r="2" fill="#FFD700"/>
  <text x="26" y="10" text-anchor="middle" font-size="8" fill="#8B4513">★</text>
</svg>
