<svg width="24" height="24" viewBox="0 0 24 24" xmlns="http://www.w3.org/2000/svg">
  <!-- Baby Shrimp -->
  <defs>
    <linearGradient id="babyShrimpGradient" x1="0%" y1="0%" x2="100%" y2="100%">
      <stop offset="0%" stop-color="#FFB6C1"/>
      <stop offset="50%" stop-color="#FFA0B4"/>
      <stop offset="100%" stop-color="#FF69B4"/>
    </linearGradient>
  </defs>
  
  <!-- Body -->
  <ellipse cx="12" cy="12" rx="8" ry="3" fill="url(#babyShrimpGradient)"/>
  
  <!-- Head -->
  <ellipse cx="8" cy="12" rx="3" ry="2" fill="#FF69B4"/>
  
  <!-- Eyes -->
  <circle cx="7" cy="11" r="0.8" fill="#000000"/>
  <circle cx="7" cy="13" r="0.8" fill="#000000"/>
  <circle cx="7" cy="11" r="0.4" fill="#FFFFFF"/>
  <circle cx="7" cy="13" r="0.4" fill="#FFFFFF"/>
  
  <!-- Antennae -->
  <line x1="5" y1="10" x2="3" y2="8" stroke="#FF1493" stroke-width="0.8"/>
  <line x1="5" y1="14" x2="3" y2="16" stroke="#FF1493" stroke-width="0.8"/>
  
  <!-- Tail -->
  <path d="M20 12 Q22 10 20 8" stroke="#FF69B4" stroke-width="2" fill="none"/>
  <path d="M20 12 Q22 14 20 16" stroke="#FF69B4" stroke-width="2" fill="none"/>
  
  <!-- Swimming legs -->
  <line x1="10" y1="14" x2="9" y2="16" stroke="#FF1493" stroke-width="0.5"/>
  <line x1="12" y1="14" x2="11" y2="16" stroke="#FF1493" stroke-width="0.5"/>
  <line x1="14" y1="14" x2="13" y2="16" stroke="#FF1493" stroke-width="0.5"/>
  <line x1="16" y1="14" x2="15" y2="16" stroke="#FF1493" stroke-width="0.5"/>
</svg>
