<svg width="48" height="48" viewBox="0 0 48 48" xmlns="http://www.w3.org/2000/svg">
  <!-- Anoma Intents Adventures Logo -->
  <defs>
    <linearGradient id="logoRedGradient" x1="0%" y1="0%" x2="100%" y2="100%">
      <stop offset="0%" stop-color="#FF4444"/>
      <stop offset="50%" stop-color="#CC0000"/>
      <stop offset="100%" stop-color="#AA0000"/>
    </linearGradient>
    <linearGradient id="logoGrayGradient" x1="0%" y1="0%" x2="100%" y2="100%">
      <stop offset="0%" stop-color="#AAAAAA"/>
      <stop offset="100%" stop-color="#777777"/>
    </linearGradient>
  </defs>
  
  <!-- Outer ring segments -->
  <path d="M24 4 A20 20 0 0 1 44 24 L36 24 A12 12 0 0 0 24 12 Z" fill="url(#logoRedGradient)"/>
  <path d="M44 24 A20 20 0 0 1 24 44 L24 36 A12 12 0 0 0 36 24 Z" fill="url(#logoRedGradient)"/>
  <path d="M24 44 A20 20 0 0 1 4 24 L12 24 A12 12 0 0 0 24 36 Z" fill="url(#logoRedGradient)"/>
  
  <!-- Gray accent -->
  <path d="M4 24 A20 20 0 0 1 24 4 L24 12 A12 12 0 0 0 12 24 Z" fill="url(#logoGrayGradient)"/>
  
  <!-- Inner dark segment -->
  <path d="M24 12 A12 12 0 0 1 36 24 L30 24 A6 6 0 0 0 24 18 Z" fill="#2A2A2A"/>
  
  <!-- Center circle -->
  <circle cx="24" cy="24" r="6" fill="#FFFFFF"/>
  <circle cx="24" cy="24" r="3" fill="#CC0000"/>
  
  <!-- Glow effect -->
  <circle cx="24" cy="24" r="20" fill="none" stroke="#FF4444" stroke-width="0.5" opacity="0.3"/>
</svg>
